<svg version="1.1" id="Layer_1" xmlns="http://www.w3.org/2000/svg" xmlns:xlink="http://www.w3.org/1999/xlink" x="0px" y="0px"
	 width="100%" viewBox="0 0 496 496" enable-background="new 0 0 496 496" xml:space="preserve">
<path fill="#000000" opacity="1.000000" stroke="none" 
	d="
M281.944427,233.313538 
	C268.654114,233.310486 268.653595,233.310486 268.657013,220.371857 
	C268.660278,207.886383 268.754303,195.399918 268.612762,182.916092 
	C268.571838,179.305466 269.762817,177.795578 273.488617,177.876663 
	C293.778687,178.318222 314.084290,177.115067 334.369385,178.647949 
	C359.801178,180.569733 374.442688,203.196304 365.860077,227.308731 
	C364.309509,231.664932 362.037811,234.064575 357.122162,233.354630 
	C353.880768,232.886475 350.490570,233.902405 346.908539,232.453049 
	C347.553528,228.561966 348.435944,224.712311 348.797607,220.814362 
	C350.966949,197.433411 337.562561,182.557144 314.034760,182.163635 
	C307.710480,182.057861 301.367249,182.408661 295.062347,182.041321 
	C290.269623,181.762070 289.177887,183.703979 289.263367,188.129135 
	C289.510895,200.942764 289.358521,213.764282 289.347229,226.582703 
	C289.341339,233.266327 289.326172,233.266312 281.944427,233.313538 
z"/>
<path fill="#000000" opacity="1.000000" stroke="none" 
	d="
M142.014511,233.310211 
	C131.181671,233.237534 131.835983,234.344131 131.837891,223.605087 
	C131.840256,210.291809 131.965637,196.976395 131.751740,183.666504 
	C131.682617,179.364578 133.013351,177.533539 137.452881,177.857544 
	C141.259583,178.135361 145.103226,177.916367 148.930466,177.900284 
	C151.818527,177.888138 153.175842,179.302414 153.172516,182.193939 
	C153.154541,197.836807 153.148087,213.479767 153.187103,229.122574 
	C153.194366,232.036224 151.971375,233.432236 148.992355,233.309128 
	C146.832947,233.219864 144.666397,233.303802 142.014511,233.310211 
z"/>
<path fill="#000000" opacity="1.000000" stroke="none" 
	d="
M243.349304,188.039139 
	C243.344757,201.835236 243.249924,215.139465 243.394562,228.441101 
	C243.433762,232.046677 242.328827,233.621353 238.563019,233.367661 
	C234.920944,233.122284 231.234512,233.097473 227.595459,233.360962 
	C223.507629,233.656921 222.553604,231.809662 222.592056,228.067383 
	C222.745804,213.102814 222.745697,198.134705 222.584930,183.170242 
	C222.543854,179.345993 223.726044,177.618637 227.696060,177.884293 
	C230.841339,178.094757 234.035065,178.162369 237.166443,177.864349 
	C241.939087,177.410080 244.016953,179.227493 243.370163,184.057205 
	C243.217026,185.200668 243.348495,186.382248 243.349304,188.039139 
z"/>
<path fill="#000000" opacity="1.000000" stroke="none" 
	d="
M367.765076,319.357178 
	C356.844208,321.505188 351.074127,317.077728 347.131226,307.234894 
	C342.691437,296.151642 336.451111,285.791656 331.044281,275.091644 
	C330.175018,273.371277 328.880646,271.725555 329.268097,268.887878 
	C335.748901,268.887878 342.162933,268.850830 348.575806,268.919037 
	C349.861023,268.932709 350.589203,270.019104 351.113281,271.089844 
	C358.505676,286.192810 365.889648,301.299957 373.242950,316.421967 
	C373.512146,316.975586 373.447449,317.691528 373.529999,318.273010 
	C371.893555,319.955231 369.955658,319.110718 367.765076,319.357178 
z"/>
<path fill="#000000" opacity="1.000000" stroke="none" 
	d="
M150.754105,319.244019 
	C145.624222,319.314423 140.965973,319.226044 136.315033,319.371216 
	C133.141556,319.470306 131.788391,318.194427 131.807281,314.993378 
	C131.889725,301.027679 131.895370,287.061401 131.871384,273.095398 
	C131.865997,269.959198 133.196442,268.565765 136.393112,268.669708 
	C140.545288,268.804718 144.706390,268.767029 148.861237,268.683563 
	C151.708664,268.626373 153.204163,269.694672 153.195984,272.724976 
	C153.157516,287.023438 153.191833,301.322113 153.174774,315.620697 
	C153.172989,317.117096 153.169434,318.704315 150.754105,319.244019 
z"/>
<path fill="#000000" opacity="1.000000" stroke="none" 
	d="
M222.658234,294.999939 
	C222.658539,287.504761 222.815491,280.504639 222.596481,273.516357 
	C222.479126,269.771881 223.933701,268.697235 227.540314,268.620544 
	C243.352112,268.284302 243.350967,268.190338 243.349243,284.090698 
	C243.348145,294.250366 243.220505,304.412323 243.405930,314.568542 
	C243.474152,318.305084 242.085922,319.369049 238.465942,319.430908 
	C222.645691,319.701141 222.647598,319.800140 222.657104,303.994110 
	C222.658798,301.162720 222.658035,298.331329 222.658234,294.999939 
z"/>
<path fill="#000000" opacity="1.000000" stroke="none" 
	d="
M268.656403,296.999847 
	C268.659943,288.843506 268.804016,281.183533 268.607147,273.532318 
	C268.511139,269.800323 269.961426,268.467133 273.577515,268.651459 
	C277.395752,268.846100 281.233459,268.768158 285.059143,268.671112 
	C287.865326,268.599945 289.384003,269.468231 289.365356,272.617584 
	C289.280487,286.931061 289.294586,301.245453 289.351166,315.559204 
	C289.362122,318.333954 288.204712,319.554749 285.467987,319.338623 
	C285.137543,319.312531 284.802490,319.338959 284.469788,319.347992 
	C268.640991,319.777618 268.641052,319.777710 268.653503,303.991119 
	C268.655212,301.827362 268.655579,299.663574 268.656403,296.999847 
z"/>
<path fill="#000000" opacity="1.000000" stroke="none" 
	d="
M296.193420,249.547867 
	C296.580017,247.423599 296.711212,245.448151 296.819702,243.471451 
	C296.901611,241.978622 297.396637,240.901840 299.133942,240.856430 
	C300.692688,240.815704 301.842834,241.425659 301.862915,243.048691 
	C301.916260,247.364990 302.364014,251.780640 301.618347,255.972382 
	C300.914795,259.927277 298.003815,258.598602 296.025940,256.750946 
	C293.039337,253.960968 290.318970,250.885941 286.337677,248.406891 
	C286.337677,250.820343 286.319397,253.233963 286.344360,255.647156 
	C286.359955,257.153259 285.985504,258.241119 284.190247,258.313049 
	C282.180511,258.393524 281.623871,257.324921 281.650635,255.529205 
	C281.705139,251.873322 281.631927,248.215393 281.699005,244.559906 
	C281.722076,243.300476 281.350586,241.730255 282.951691,241.093597 
	C284.631897,240.425491 286.149292,240.855865 287.556488,242.043884 
	C290.449188,244.486023 292.360474,247.999222 296.193420,249.547867 
z"/>
<path fill="#000000" opacity="1.000000" stroke="none" 
	d="
M309.006348,257.641052 
	C308.566925,252.872284 308.449707,248.402451 308.281586,243.934525 
	C308.217743,242.238220 308.609497,240.847412 310.574677,240.806808 
	C314.375275,240.728287 318.196686,240.237900 321.959198,241.309937 
	C326.480225,242.598099 328.481171,245.701645 328.232025,250.226746 
	C327.974762,254.899445 325.126678,257.581451 320.705688,258.137878 
	C316.948944,258.610748 313.093475,258.745514 309.006348,257.641052 
M314.932190,253.711578 
	C316.245544,253.746597 317.575562,253.929901 318.868591,253.784271 
	C321.208801,253.520676 323.170502,252.282623 323.270203,249.853241 
	C323.379761,247.184006 321.461334,245.783890 318.901398,245.314987 
	C313.449554,244.316406 312.028015,246.748886 314.932190,253.711578 
z"/>
<path fill="#000000" opacity="1.000000" stroke="none" 
	d="
M257.504272,252.525253 
	C259.125671,249.224533 260.536316,246.229965 262.037170,243.281326 
	C263.750702,239.914917 268.115143,239.502289 269.916168,242.726318 
	C272.562775,247.464005 274.834442,252.411148 277.322144,257.381531 
	C272.186005,260.661285 270.601135,254.074234 266.291779,253.995712 
	C261.828491,253.914383 260.496216,260.084503 255.873077,257.836243 
	C254.971985,255.718948 256.718018,254.447571 257.504272,252.525253 
z"/>
<path fill="#000000" opacity="1.000000" stroke="none" 
	d="
M190.587814,248.434402 
	C192.184723,251.550079 193.600113,254.338181 195.109833,257.312103 
	C192.707825,258.629913 191.220764,258.480804 189.499115,256.757629 
	C186.032272,253.287720 182.163895,253.378799 178.427994,256.934296 
	C176.829269,258.455841 175.340652,258.595978 172.863419,257.412689 
	C175.459106,252.249817 177.845154,247.027481 180.684082,242.064224 
	C182.042389,239.689514 186.273346,240.242783 187.752792,242.747467 
	C188.763840,244.459183 189.530411,246.315277 190.587814,248.434402 
z"/>
<path fill="#000000" opacity="1.000000" stroke="none" 
	d="
M231.675140,249.844696 
	C231.692825,247.387756 231.688950,245.396118 231.735214,243.405640 
	C231.770889,241.871429 232.401779,240.862198 234.130936,240.940079 
	C235.571411,241.004959 236.298508,241.870468 236.215347,243.189590 
	C235.997208,246.650162 237.528488,247.794876 240.946503,247.739868 
	C244.179855,247.687851 246.038162,246.966415 245.797073,243.310043 
	C245.674911,241.457016 246.885498,240.657532 248.713028,240.857086 
	C250.438354,241.045456 250.797791,242.210388 250.751038,243.690018 
	C250.625412,247.665115 250.478256,251.640091 250.417206,255.616318 
	C250.394012,257.126007 250.122177,258.258423 248.294373,258.249176 
	C246.979996,258.242554 245.786026,257.763000 245.883667,256.357941 
	C246.232330,251.340469 243.103943,251.192337 239.449921,251.411285 
	C235.063431,251.674133 236.907120,255.248856 235.991547,257.750641 
	C233.262253,258.853516 231.420105,258.630341 231.645325,254.791000 
	C231.732666,253.302032 231.669693,251.804245 231.675140,249.844696 
z"/>
<path fill="#000000" opacity="1.000000" stroke="none" 
	d="
M213.942520,245.166306 
	C211.302933,245.149872 210.136307,246.176392 210.163361,248.472580 
	C210.186783,250.459488 210.156311,252.447021 210.150955,254.434280 
	C210.145874,256.321289 210.182770,258.277496 207.478897,258.204712 
	C204.772507,258.131927 204.992554,256.071808 204.943054,254.260544 
	C204.906860,252.936737 204.884430,251.606781 204.967911,250.286652 
	C205.157318,247.291519 204.671707,244.954697 200.844025,245.120758 
	C199.412720,245.182846 198.119888,244.660629 198.379791,242.834793 
	C198.610275,241.215607 199.862381,240.756622 201.297913,240.749908 
	C205.437592,240.730560 209.577515,240.732376 213.717133,240.758972 
	C215.157776,240.768234 216.361221,241.299026 216.705231,242.837769 
	C217.137070,244.769455 215.758026,245.003754 213.942520,245.166306 
z"/>
</svg>